<?xml version="1.0" encoding="UTF-8" standalone="no"?>
<!DOCTYPE svg PUBLIC "-//W3C//DTD SVG 1.1//EN" "http://www.w3.org/Graphics/SVG/1.1/DTD/svg11.dtd">
<svg version="1.1" xmlns="http://www.w3.org/2000/svg" xmlns:xlink="http://www.w3.org/1999/xlink" preserveAspectRatio="xMidYMid meet" viewBox="0 0 517 280" width="517" height="280"><defs><path d="M74.1 190.15L232.43 225.56L464.72 180.77L413.68 84.94L102.22 96.99L74.1 190.15Z" id="a63hlNr2Q5"></path><path d="M69.05 227.97C90.39 240.21 113.14 249.83 136.79 256.62C149.25 260.2 149.62 260.31 161.73 263.79C186.52 270.91 212.19 274.52 237.98 274.52C251.87 274.52 255.13 274.52 269.13 274.52C294.59 274.52 319.97 271.77 344.84 266.31C354.44 264.2 350.96 264.97 361.85 262.58C382.46 258.05 402.53 251.36 421.73 242.61C432.41 237.74 434.88 236.62 445.38 231.83C464.83 222.97 481.42 208.85 493.28 191.06C497.99 184 502.27 177.57 509.05 167.4C512.45 162.3 508.97 155.45 502.84 155.2C491.23 154.72 462.21 153.52 415.77 151.6L347.02 146.4C326.45 144.9 313.59 143.96 308.45 143.58C300.86 143.03 293.23 143.45 285.74 144.84C280.71 145.78 288 144.42 285.74 144.84C269.05 147.94 251.98 148.47 235.13 146.4C229.17 145.67 238.91 146.87 233.5 146.2C214.81 143.91 195.9 143.97 177.22 146.4C177.22 146.4 177.22 146.4 177.22 146.4L130.35 151.6C67.07 155.04 27.52 157.18 11.7 158.04C4.94 158.41 1.28 166.14 5.29 171.6C10.3 178.43 11.53 180.11 15.42 185.42C25.26 198.84 37.81 210.05 52.24 218.33C62.03 223.94 61.31 223.53 69.05 227.97Z" id="a4mmziKLJ"></path><path d="M261.6 132.85C261.6 132.85 261.6 132.85 261.6 132.85C256.43 140.61 247.57 145.08 238.26 144.63C230.43 144.26 215.14 143.52 205.61 143.06C201.29 142.86 197.01 142.07 192.89 140.74C190.59 140 196.07 141.77 195.32 141.53C186.51 138.68 179.44 132.01 176.08 123.38C175.69 122.36 177.44 126.87 176.46 124.34C175.21 121.12 177.06 117.53 180.41 116.69C196.65 112.63 238.29 102.22 254.33 98.21C258.02 97.29 261.6 100.08 261.6 103.89C261.6 107.75 261.6 117.4 261.6 132.85Z" id="aULtmCuin"></path><path d="M262.37 136.41C272.79 142.28 284.54 145.35 296.5 145.35C302.44 145.35 309.97 145.35 317.89 145.35C323.15 145.35 328.15 143.05 331.58 139.06C333 137.4 329.97 140.94 330.91 139.83C335.93 133.99 338.68 126.54 338.68 118.83C338.68 118.2 338.68 116.63 338.68 114.1C299.09 105.01 274.35 99.32 264.45 97.05C262.99 96.72 261.6 97.83 261.6 99.32C261.6 106.65 261.6 127.35 261.6 135.09C261.6 135.64 261.89 136.15 262.37 136.41C265.55 138.2 262.22 136.33 262.37 136.41Z" id="c10538yGzs"></path><path d="M160.66 17.56C177.75 9.79 196.31 5.77 215.09 5.77C215.85 5.77 209.39 5.77 215.09 5.77C217.61 5.77 220.11 6.15 222.52 6.9C231.79 9.8 235.35 10.91 239.46 12.2C258.62 18.19 279.16 18.19 298.32 12.2C302.43 10.91 292.43 14.04 298.32 12.2C311.95 7.94 326.16 5.77 340.44 5.77C343.01 5.77 336.13 5.77 340.44 5.77C348.84 5.77 357.1 7.97 364.39 12.15C379.25 20.66 392.99 28.54 402.92 34.23C426.58 47.79 447.66 65.41 465.2 86.29C471.52 93.82 487.34 112.64 512.64 142.75C513.11 144.21 513.4 145.13 513.52 145.49C515.11 150.46 511.24 155.48 506.03 155.2C488.39 154.28 446.04 152.05 428.35 151.11C421.5 150.75 414.9 148.4 409.37 144.35C404.82 141.01 401.26 138.4 397.11 135.35C390.15 130.25 382.39 126.33 374.16 123.76C371.37 122.89 364.41 120.71 353.27 117.23C329.85 110.84 315.21 106.85 309.36 105.25C278.16 96.74 245.18 97.24 214.25 106.67C199.14 111.28 178.34 117.63 157.53 123.98C145.07 127.78 133.39 133.8 123.07 141.74C120.77 143.51 126.19 139.34 123.07 141.74C115.59 147.49 106.58 150.92 97.17 151.6C76.93 153.06 29.55 156.48 9.04 157.95C4.53 158.28 2.04 152.83 5.24 149.63C27.76 127.11 66.87 88 84.6 70.27C106.59 48.28 132.35 30.43 160.66 17.56C165.85 15.2 152.1 21.45 160.66 17.56Z" id="a1Fc0B57jW"></path></defs><g><g><g><use xlink:href="#a63hlNr2Q5" opacity="1" fill="#812b2b" fill-opacity="1"></use><g><use xlink:href="#a63hlNr2Q5" opacity="1" fill-opacity="0" stroke="#000000" stroke-width="0" stroke-opacity="1"></use></g></g><g><use xlink:href="#a4mmziKLJ" opacity="1" fill="#950011" fill-opacity="1"></use><g><use xlink:href="#a4mmziKLJ" opacity="1" fill-opacity="0" stroke="#000000" stroke-width="0" stroke-opacity="1"></use></g></g><g><use xlink:href="#aULtmCuin" opacity="1" fill="#e8eddd" fill-opacity="1"></use><g><use xlink:href="#aULtmCuin" opacity="1" fill-opacity="0" stroke="#000000" stroke-width="0" stroke-opacity="1"></use></g></g><g><use xlink:href="#c10538yGzs" opacity="1" fill="#e8eddd" fill-opacity="1"></use><g><use xlink:href="#c10538yGzs" opacity="1" fill-opacity="0" stroke="#000000" stroke-width="0" stroke-opacity="1"></use></g></g><g><use xlink:href="#a1Fc0B57jW" opacity="1" fill="#950011" fill-opacity="1"></use><g><use xlink:href="#a1Fc0B57jW" opacity="1" fill-opacity="0" stroke="#000000" stroke-width="0" stroke-opacity="1"></use></g></g></g></g></svg>